<svg xmlns="http://www.w3.org/2000/svg" xmlns:xlink="http://www.w3.org/1999/xlink" width="290" zoomAndPan="magnify" viewBox="0 0 217.5 242.249991" height="323" preserveAspectRatio="xMidYMid meet" version="1.0"><defs><clipPath id="3c3391823b"><path d="M 4 0.929688 L 213 0.929688 L 213 138 L 4 138 Z M 4 0.929688 " clip-rule="nonzero"/></clipPath><clipPath id="6699c0eead"><path d="M 4 104 L 213 104 L 213 241.488281 L 4 241.488281 Z M 4 104 " clip-rule="nonzero"/></clipPath></defs><g clip-path="url(#3c3391823b)"><path fill="#5ce1e6" d="M 4.351562 33.582031 C 4.351562 32.078125 4.726562 30.578125 5.851562 29.453125 L 32.785156 2.429688 C 33.910156 1.304688 35.40625 0.929688 36.902344 0.929688 C 38.398438 0.929688 39.894531 1.679688 41.015625 2.429688 L 108.355469 70.359375 L 176.070312 2.808594 C 177.195312 1.679688 178.691406 1.304688 180.1875 1.304688 C 181.683594 1.304688 183.179688 2.054688 184.300781 2.808594 L 211.238281 29.828125 C 213.484375 32.078125 213.484375 35.457031 211.238281 37.707031 L 113.21875 136.035156 C 112.097656 137.160156 110.226562 137.910156 108.730469 137.535156 C 107.234375 137.535156 105.363281 137.160156 104.242188 136.035156 L 5.851562 37.707031 C 4.726562 36.582031 4.351562 35.082031 4.351562 33.582031 Z M 36.902344 14.441406 L 17.820312 33.582031 L 108.355469 124.398438 L 198.894531 33.582031 L 179.8125 14.441406 L 112.097656 82.367188 C 109.855469 84.621094 106.488281 84.621094 104.242188 82.367188 Z M 36.902344 14.441406 " fill-opacity="1" fill-rule="nonzero"/></g><g clip-path="url(#6699c0eead)"><path fill="#5ce1e6" d="M 4.351562 137.160156 C 4.351562 135.65625 4.726562 134.15625 5.851562 133.03125 L 32.785156 106.011719 C 33.910156 104.882812 35.40625 104.507812 36.902344 104.507812 C 38.398438 104.507812 39.894531 105.261719 41.015625 106.011719 L 108.355469 173.9375 L 176.070312 106.386719 C 177.195312 105.261719 178.691406 104.882812 180.1875 104.882812 C 181.683594 104.882812 183.179688 105.636719 184.300781 106.386719 L 211.238281 133.40625 C 213.484375 135.65625 213.484375 139.035156 211.238281 141.289062 L 113.21875 239.613281 C 112.097656 240.738281 110.226562 241.488281 108.730469 241.113281 C 107.234375 241.113281 105.363281 240.738281 104.242188 239.613281 L 5.851562 141.289062 C 4.726562 140.160156 4.351562 138.660156 4.351562 137.160156 Z M 36.902344 118.394531 L 17.820312 137.535156 L 108.355469 227.980469 L 198.894531 137.160156 L 179.8125 118.019531 L 112.097656 185.945312 C 109.855469 188.199219 106.488281 188.199219 104.242188 185.945312 Z M 36.902344 118.394531 " fill-opacity="1" fill-rule="nonzero"/></g></svg>